<svg width="32" height="32" version="1.1" xmlns="http://www.w3.org/2000/svg" desc="Created with imagetracer.js version 1.2.6" ><path fill="rgb(181,249,230)" stroke="rgb(181,249,230)" stroke-width="1" opacity="1" d="M 26.5 13 L 27 17.5 L 26 17.5 L 26.5 13 Z " /><path fill="rgb(181,249,230)" stroke="rgb(181,249,230)" stroke-width="1" opacity="1" d="M 24.5 22 L 22.5 25 L 24.5 22 Z " /><path fill="rgb(181,249,230)" stroke="rgb(181,249,230)" stroke-width="1" opacity="1" d="M 13.5 26 L 19 26.5 L 13.5 27 L 13.5 26 Z " /><path fill="rgb(29,236,180)" stroke="rgb(29,236,180)" stroke-width="1" opacity="1" d="M 9.5 6 L 7.5 9 L 9.5 6 Z " /><path fill="rgb(29,236,180)" stroke="rgb(29,236,180)" stroke-width="1" opacity="1" d="M 11.5 18 L 13 20.5 L 11 19.5 L 11.5 18 Z " /><path fill="rgb(0,0,0)" stroke="rgb(0,0,0)" stroke-width="1" opacity="0" d="M 0 0 L 10 0.5 L 2 6.5 L 0.5 10 L 0 0 Z " /><path fill="rgb(0,0,0)" stroke="rgb(0,0,0)" stroke-width="1" opacity="0" d="M 22.5 0 L 32 0 L 32 9.5 L 31 9.5 L 25.5 2 Q 21.7 1.7 22.5 0 Z " /><path fill="rgb(0,0,0)" stroke="rgb(0,0,0)" stroke-width="1" opacity="0" d="M 0.5 22 L 6.5 30 L 10 31.5 L 0 32 L 0.5 22 Z " /><path fill="rgb(0,0,0)" stroke="rgb(0,0,0)" stroke-width="1" opacity="0" d="M 31.5 22 L 32 32 L 22 31.5 L 30 25.5 L 31.5 22 Z " /><path fill="rgb(4,234,171)" stroke="rgb(4,234,171)" stroke-width="1" opacity="1" d="M 15.5 0 L 21.5 1 L 30 8.5 L 31 20.5 Q 29.6 26.6 24.5 29 L 21.5 31 L 15.5 32 L 8.5 30 L 2 23.5 L 1 11.5 Q 2.4 5.4 7.5 3 L 15.5 0 Z M 12 5 L 10 6 L 5 12 Q 3 20 8 23 L 11 19 L 15 22 Q 19 23 20 20 Q 22 21 21 19 L 22 16 L 21 13 L 18 10 L 13 11 L 10 15 Q 11 18 8 17 L 9 13 L 16 8 L 21 9 L 22 6 Q 19 4 12 5 Z M 25 9 L 23 12 L 22 21 L 17 23 L 15 23 L 9 25 L 13 27 L 22 26 L 27 20 Q 28 12 25 9 Z " /><path fill="rgb(92,241,201)" stroke="rgb(92,241,201)" stroke-width="1" opacity="1" d="M 14.5 10 L 18 10.5 L 14.5 11 L 14.5 10 Z " /><path fill="rgb(92,241,201)" stroke="rgb(92,241,201)" stroke-width="1" opacity="1" d="M 12.5 11 L 11.5 13 L 12.5 11 Z " /><path fill="rgb(92,241,201)" stroke="rgb(92,241,201)" stroke-width="1" opacity="1" d="M 21.5 15 L 20.5 17 L 17 16.5 L 21.5 15 Z " /><path fill="rgb(92,241,201)" stroke="rgb(92,241,201)" stroke-width="1" opacity="1" d="M 14 16 L 16 16.5 L 14 17.5 L 14 16 Z " /><path fill="rgb(92,241,201)" stroke="rgb(92,241,201)" stroke-width="1" opacity="1" d="M 9.5 19 L 8.5 21 L 9.5 19 Z " /><path fill="rgb(237,253,249)" stroke="rgb(237,253,249)" stroke-width="1" opacity="1" d="M 14.5 5 L 17 5.5 L 14.5 6 L 14.5 5 Z " /><path fill="rgb(237,253,249)" stroke="rgb(237,253,249)" stroke-width="1" opacity="1" d="M 9.5 7 L 8.5 9 L 9.5 7 Z " /><path fill="rgb(237,253,249)" stroke="rgb(237,253,249)" stroke-width="1" opacity="1" d="M 10.5 9 L 9.5 11 L 10.5 9 Z " /><path fill="rgb(237,253,249)" stroke="rgb(237,253,249)" stroke-width="1" opacity="1" d="M 24.5 10 L 25.5 12 L 24.5 10 Z " /><path fill="rgb(237,253,249)" stroke="rgb(237,253,249)" stroke-width="1" opacity="1" d="M 5.5 14 L 6 17.5 L 5 17.5 L 5.5 14 Z " /><path fill="rgb(0,234,170)" stroke="rgb(0,234,170)" stroke-width="1" opacity="0.8901960784313725" d="M 10.5 0 L 15 0.5 L 10.5 1 L 2 8.5 L 1 20.5 Q 2.6 27.4 8.5 30 L 15 31.5 L 10.5 32 L 2 25.5 Q -1.8 20.8 0 10.5 L 6.5 2 L 10.5 0 Z " /><path fill="rgb(0,234,170)" stroke="rgb(0,234,170)" stroke-width="1" opacity="0.8901960784313725" d="M 17.5 0 Q 26.6 0.4 30 6.5 Q 33.8 11.2 32 21.5 L 25.5 30 Q 23.2 32.7 17.5 32 L 17.5 31 L 21.5 31 L 30 23.5 L 31 11.5 Q 29.6 5.4 24.5 3 Q 22.8 0.2 17.5 1 L 17.5 0 Z " /><path fill="rgb(254,255,255)" stroke="rgb(254,255,255)" stroke-width="1" opacity="1" d="M 11.5 6 L 19.5 6 L 21 7.5 L 12.5 8 L 9 10.5 L 8 18.5 L 11 16.5 L 12 12 L 17.5 11 L 20 12 L 21 14.5 L 13.5 16 L 6 21 Q 3.9 9.3 11.5 6 Z " /><path fill="rgb(254,255,255)" stroke="rgb(254,255,255)" stroke-width="1" opacity="1" d="M 24.5 11 Q 27.8 12.8 26 19.5 L 21.5 25 L 12.5 26 L 11.5 24 Q 21.6 25.6 24 19.5 L 24.5 11 Z " /><path fill="rgb(254,255,255)" stroke="rgb(254,255,255)" stroke-width="1" opacity="1" d="M 16.5 17 L 21 17.5 Q 20.3 21.7 14.5 21 L 12 19.5 L 16.5 17 Z " /></svg>